{
  "source": "C:\\Users\\Peter\\Desktop\\stuff\\MIUN\\quantitative_research\\video_compression\\videos\\BVI-HD\\BVI-HD_CDVL_videos\\ORIG\\CloudsZoom_1920x1080_60fps.mp4",
  "output": "C:\\Users\\Peter\\Desktop\\stuff\\MIUN\\quantitative_research\\video_compression\\compressed_videos\\BVI-HD\\av1\\4\\CloudsZoom_1920x1080_60fps_av1.mkv",
  "codec": "av1",
  "ok": "Input #0, mov,mp4,m4a,3gp,3g2,mj2, from 'C:\\Users\\Peter\\Desktop\\stuff\\MIUN\\quantitative_research\\video_compression\\videos\\BVI-HD\\BVI-HD_CDVL_videos\\ORIG\\CloudsZoom_1920x1080_60fps.mp4':\n  Metadata:\n    major_brand     : isom\n    minor_version   : 512\n    compatible_brands: isomiso2avc1mp41\n    encoder         : Lavf54.28.101\n  Duration: 00:00:05.00, start: 0.000000, bitrate: 32589 kb/s\n  Stream #0:0[0x1](und): Video: h264 (High 4:4:4 Predictive) (avc1 / 0x31637661), yuv420p(progressive), 1920x1080, 32586 kb/s, 60 fps, 60 tbr, 60 tbn (default)\n    Metadata:\n      handler_name    : VideoHandler\n      vendor_id       : [0][0][0][0]\n[out#0/matroska @ 00000297e51490c0] Codec AVOption b:a (set bitrate (in bits/s)) has not been used for any stream. The most likely reason is either wrong type (e.g. a video option with no video streams) or that it is a private option of some decoder which was not actually used for any stream.\nStream mapping:\n  Stream #0:0 -> #0:0 (h264 (native) -> av1 (libsvtav1))\nPress [q] to stop, [?] for help\nSvt[info]: -------------------------------------------\nSvt[info]: SVT [version]:\tSVT-AV1 Encoder Lib v3.1.0-19-g6ecfe8ec\nSvt[info]: SVT [build]  :\tGCC 15.2.0\t 64 bit\nSvt[info]: LIB Build date: Aug 17 2025 11:37:13\nSvt[info]: -------------------------------------------\nSvt[info]: Level of Parallelism: 5\nSvt[info]: Number of PPCS 93\nSvt[info]: [asm level on system : up to avx2]\nSvt[info]: [asm level selected : up to avx2]\nSvt[info]: -------------------------------------------\nSvt[info]: SVT [config]: main profile\ttier (auto)\tlevel (auto)\nSvt[info]: SVT [config]: width / height / fps numerator / fps denominator \t\t: 1920 / 1080 / 60 / 1\nSvt[info]: SVT [config]: bit-depth / color format \t\t\t\t\t: 8 / YUV420\nSvt[info]: SVT [config]: preset / tune / pred struct \t\t\t\t\t: 4 / PSNR / random access\nSvt[info]: SVT [config]: gop size / mini-gop size / key-frame type \t\t\t: 321 / 16 / key frame\nSvt[info]: SVT [config]: BRC mode / target bitrate (kbps)\t\t\t\t: VBR / 4000 \nSvt[info]: SVT [config]: AQ mode / Variance Boost \t\t\t\t\t: 2 / 0\nSvt[info]: SVT [config]: sharpness / luminance-based QP bias \t\t\t\t: 0 / 0\nSvt[info]: SVT [config]: QP scale compress strength \t\t\t\t\t: 0\nSvt[info]: -------------------------------------------\nOutput #0, matroska, to 'C:\\Users\\Peter\\Desktop\\stuff\\MIUN\\quantitative_research\\video_compression\\compressed_videos\\BVI-HD\\av1\\4\\CloudsZoom_1920x1080_60fps_av1.mkv':\n  Metadata:\n    major_brand     : isom\n    minor_version   : 512\n    compatible_brands: isomiso2avc1mp41\n    encoder         : Lavf62.3.100\n  Stream #0:0(und): Video: av1 (AV01 / 0x31305641), yuv420p(tv, progressive), 1920x1080, q=2-31, 4000 kb/s, 60 fps, 1k tbn (default)\n    Metadata:\n      encoder         : Lavc62.11.100 libsvtav1\n      handler_name    : VideoHandler\n      vendor_id       : [0][0][0][0]\n    Side data:\n      cpb: bitrate max/min/avg: 0/0/4000000 buffer size: 4000000 vbv_delay: N/A\nframe=    0 fps=0.0 q=0.0 size=       0KiB time=N/A bitrate=N/A speed=N/A elapsed=0:00:01.04    \nframe=    0 fps=0.0 q=0.0 size=       0KiB time=N/A bitrate=N/A speed=N/A elapsed=0:00:01.64    \nframe=    0 fps=0.0 q=0.0 size=       0KiB time=N/A bitrate=N/A speed=N/A elapsed=0:00:02.21    \nframe=    0 fps=0.0 q=0.0 size=       0KiB time=N/A bitrate=N/A speed=N/A elapsed=0:00:02.74    \nframe=    1 fps=0.3 q=1.0 size=       1KiB time=00:00:00.00 bitrate=N/A speed=   0x elapsed=0:00:03.28    \nframe=    1 fps=0.3 q=1.0 size=       1KiB time=00:00:00.00 bitrate=N/A speed=   0x elapsed=0:00:03.81    \nframe=    6 fps=1.4 q=18.0 size=       1KiB time=00:00:00.08 bitrate=  68.4kbits/s speed=0.0191x elapsed=0:00:04.35    \nframe=   11 fps=2.3 q=13.0 size=       1KiB time=00:00:00.16 bitrate=  34.2kbits/s speed=0.0342x elapsed=0:00:04.87    \nframe=   16 fps=3.0 q=12.0 size=       1KiB time=00:00:00.25 bitrate=  22.8kbits/s speed=0.0462x elapsed=0:00:05.40    \nframe=   19 fps=3.2 q=9.0 size=       1KiB time=00:00:00.30 bitrate=  19.0kbits/s speed=0.0504x elapsed=0:00:05.95    \nframe=   22 fps=3.4 q=7.0 size=       1KiB time=00:00:00.33 bitrate=  17.1kbits/s speed=0.0511x elapsed=0:00:06.51    \nframe=   24 fps=3.4 q=9.0 size=       1KiB time=00:00:00.38 bitrate=  14.9kbits/s speed=0.054x elapsed=0:00:07.09    \nframe=   27 fps=3.5 q=6.0 size=       1KiB time=00:00:00.43 bitrate=  13.1kbits/s speed=0.0566x elapsed=0:00:07.65    \nframe=   29 fps=3.5 q=8.0 size=       1KiB time=00:00:00.46 bitrate=  12.2kbits/s speed=0.0569x elapsed=0:00:08.19    \nframe=   33 fps=3.8 q=3.0 size=       1KiB time=00:00:00.53 bitrate=  10.7kbits/s speed=0.0611x elapsed=0:00:08.73    \nframe=   35 fps=3.8 q=9.0 size=       1KiB time=00:00:00.56 bitrate=  10.1kbits/s speed=0.061x elapsed=0:00:09.28    \nframe=   39 fps=4.0 q=8.0 size=       1KiB time=00:00:00.63 bitrate=   9.0kbits/s speed=0.0645x elapsed=0:00:09.82    \nframe=   40 fps=3.9 q=9.0 size=       1KiB time=00:00:00.65 bitrate=   8.8kbits/s speed=0.0629x elapsed=0:00:10.34    \nframe=   43 fps=3.9 q=9.0 size=       1KiB time=00:00:00.70 bitrate=   8.1kbits/s speed=0.0642x elapsed=0:00:10.89    \nframe=   46 fps=4.0 q=9.0 size=       1KiB time=00:00:00.75 bitrate=   7.6kbits/s speed=0.0657x elapsed=0:00:11.41    \nframe=   50 fps=4.2 q=9.0 size=       1KiB time=00:00:00.81 bitrate=   7.0kbits/s speed=0.0681x elapsed=0:00:11.99    \nframe=   52 fps=4.1 q=8.0 size=       1KiB time=00:00:00.85 bitrate=   6.7kbits/s speed=0.0678x elapsed=0:00:12.53    \nframe=   55 fps=4.2 q=9.0 size=       1KiB time=00:00:00.90 bitrate=   6.3kbits/s speed=0.0687x elapsed=0:00:13.09    \nframe=   57 fps=4.2 q=3.0 size=       1KiB time=00:00:00.93 bitrate=   6.1kbits/s speed=0.0684x elapsed=0:00:13.65    \nframe=   61 fps=4.3 q=8.0 size=       1KiB time=00:00:01.00 bitrate=   5.7kbits/s speed=0.0703x elapsed=0:00:14.21    \nframe=   64 fps=4.3 q=9.0 size=       1KiB time=00:00:01.05 bitrate=   5.4kbits/s speed=0.0711x elapsed=0:00:14.76    \nframe=   67 fps=4.4 q=8.0 size=       1KiB time=00:00:01.10 bitrate=   5.2kbits/s speed=0.072x elapsed=0:00:15.28    \nframe=   70 fps=4.4 q=7.0 size=       1KiB time=00:00:01.15 bitrate=   5.0kbits/s speed=0.0728x elapsed=0:00:15.80    \nframe=   72 fps=4.4 q=8.0 size=       1KiB time=00:00:01.18 bitrate=   4.8kbits/s speed=0.0725x elapsed=0:00:16.32    \nframe=   73 fps=4.3 q=4.0 size=       1KiB time=00:00:01.20 bitrate=   4.7kbits/s speed=0.0711x elapsed=0:00:16.87    \nframe=   76 fps=4.4 q=7.0 size=       1KiB time=00:00:01.25 bitrate=   4.6kbits/s speed=0.0717x elapsed=0:00:17.43    \nframe=   77 fps=4.3 q=8.0 size=       1KiB time=00:00:01.26 bitrate=   4.5kbits/s speed=0.0703x elapsed=0:00:18.00    \nframe=   81 fps=4.4 q=1.0 size=       1KiB time=00:00:01.33 bitrate=   4.3kbits/s speed=0.0717x elapsed=0:00:18.58    \nframe=   83 fps=4.3 q=9.0 size=       1KiB time=00:00:01.36 bitrate=   4.2kbits/s speed=0.0715x elapsed=0:00:19.11    \nframe=   85 fps=4.3 q=8.0 size=       1KiB time=00:00:01.40 bitrate=   4.1kbits/s speed=0.0711x elapsed=0:00:19.68    \nframe=   87 fps=4.3 q=8.0 size=       1KiB time=00:00:01.43 bitrate=   4.0kbits/s speed=0.0709x elapsed=0:00:20.20    \nframe=   88 fps=4.2 q=9.0 size=       1KiB time=00:00:01.45 bitrate=   3.9kbits/s speed=0.0699x elapsed=0:00:20.74    \nframe=   90 fps=4.2 q=9.0 size=       1KiB time=00:00:01.48 bitrate=   3.8kbits/s speed=0.0694x elapsed=0:00:21.36    \nframe=   93 fps=4.2 q=8.0 size=       1KiB time=00:00:01.53 bitrate=   3.7kbits/s speed=0.0699x elapsed=0:00:21.94    \nframe=   96 fps=4.3 q=9.0 size=       1KiB time=00:00:01.58 bitrate=   3.6kbits/s speed=0.0702x elapsed=0:00:22.54    \nframe=   98 fps=4.2 q=8.0 size=       1KiB time=00:00:01.61 bitrate=   3.5kbits/s speed=0.0699x elapsed=0:00:23.12    \nframe=  102 fps=4.3 q=8.0 size=       1KiB time=00:00:01.68 bitrate=   3.4kbits/s speed=0.0709x elapsed=0:00:23.74    \nframe=  104 fps=4.3 q=10.0 size=       1KiB time=00:00:01.71 bitrate=   3.3kbits/s speed=0.0708x elapsed=0:00:24.25    \nframe=  109 fps=4.4 q=9.0 size=       1KiB time=00:00:01.78 bitrate=   3.2kbits/s speed=0.0719x elapsed=0:00:24.78    \nframe=  112 fps=4.4 q=9.0 size=       1KiB time=00:00:01.85 bitrate=   3.1kbits/s speed=0.073x elapsed=0:00:25.35    \nframe=  116 fps=4.5 q=7.0 size=       1KiB time=00:00:01.90 bitrate=   3.0kbits/s speed=0.0734x elapsed=0:00:25.88    \nframe=  120 fps=4.5 q=9.0 size=       1KiB time=00:00:01.98 bitrate=   2.9kbits/s speed=0.075x elapsed=0:00:26.44    \nframe=  122 fps=4.5 q=7.0 size=       1KiB time=00:00:02.01 bitrate=   2.8kbits/s speed=0.0748x elapsed=0:00:26.95    \nframe=  126 fps=4.6 q=8.0 size=       1KiB time=00:00:02.08 bitrate=   2.7kbits/s speed=0.0758x elapsed=0:00:27.47    \nframe=  130 fps=4.6 q=9.0 size=       1KiB time=00:00:02.15 bitrate=   2.6kbits/s speed=0.0767x elapsed=0:00:28.01    \nframe=  134 fps=4.7 q=8.0 size=       1KiB time=00:00:02.21 bitrate=   2.6kbits/s speed=0.0776x elapsed=0:00:28.55    \nframe=  137 fps=4.7 q=3.0 size=       1KiB time=00:00:02.26 bitrate=   2.5kbits/s speed=0.0779x elapsed=0:00:29.08    \nframe=  141 fps=4.8 q=8.0 size=       1KiB time=00:00:02.33 bitrate=   2.4kbits/s speed=0.0788x elapsed=0:00:29.61    \nframe=  146 fps=4.8 q=7.0 size=       1KiB time=00:00:02.41 bitrate=   2.4kbits/s speed=0.0801x elapsed=0:00:30.15    \nframe=  150 fps=4.9 q=8.0 size=       1KiB time=00:00:02.48 bitrate=   2.3kbits/s speed=0.0809x elapsed=0:00:30.67    \nframe=  152 fps=4.9 q=10.0 size=       1KiB time=00:00:02.51 bitrate=   2.3kbits/s speed=0.0807x elapsed=0:00:31.19    \nframe=  157 fps=4.9 q=8.0 size=       1KiB time=00:00:02.60 bitrate=   2.2kbits/s speed=0.0819x elapsed=0:00:31.74    \nframe=  161 fps=5.0 q=1.0 size=       1KiB time=00:00:02.66 bitrate=   2.1kbits/s speed=0.0826x elapsed=0:00:32.27    \nframe=  165 fps=5.0 q=9.0 size=       1KiB time=00:00:02.73 bitrate=   2.1kbits/s speed=0.0833x elapsed=0:00:32.80    \nframe=  168 fps=5.0 q=9.0 size=       1KiB time=00:00:02.78 bitrate=   2.0kbits/s speed=0.0835x elapsed=0:00:33.32    \nframe=  171 fps=5.1 q=10.0 size=       1KiB time=00:00:02.83 bitrate=   2.0kbits/s speed=0.0837x elapsed=0:00:33.85    \nframe=  176 fps=5.1 q=9.0 size=       1KiB time=00:00:02.91 bitrate=   2.0kbits/s speed=0.0848x elapsed=0:00:34.37    \nframe=  179 fps=5.1 q=9.0 size=       1KiB time=00:00:02.96 bitrate=   1.9kbits/s speed=0.0849x elapsed=0:00:34.93    \nframe=  184 fps=5.2 q=9.0 size=       1KiB time=00:00:03.05 bitrate=   1.9kbits/s speed=0.086x elapsed=0:00:35.46    \nframe=  188 fps=5.2 q=7.0 size=       1KiB time=00:00:03.11 bitrate=   1.8kbits/s speed=0.0865x elapsed=0:00:36.02    \nframe=  192 fps=5.3 q=9.0 size=       1KiB time=00:00:03.18 bitrate=   1.8kbits/s speed=0.087x elapsed=0:00:36.56    \nframe=  196 fps=5.3 q=7.0 size=       1KiB time=00:00:03.25 bitrate=   1.8kbits/s speed=0.0876x elapsed=0:00:37.10    \nframe=  200 fps=5.3 q=8.0 size=       1KiB time=00:00:03.31 bitrate=   1.7kbits/s speed=0.0881x elapsed=0:00:37.63    \nframe=  205 fps=5.4 q=8.0 size=       1KiB time=00:00:03.40 bitrate=   1.7kbits/s speed=0.0891x elapsed=0:00:38.17    \nframe=  209 fps=5.4 q=1.0 size=       1KiB time=00:00:03.46 bitrate=   1.6kbits/s speed=0.0896x elapsed=0:00:38.69    \nframe=  213 fps=5.4 q=7.0 size=       1KiB time=00:00:03.53 bitrate=   1.6kbits/s speed=0.0901x elapsed=0:00:39.21    \nframe=  217 fps=5.5 q=4.0 size=       1KiB time=00:00:03.60 bitrate=   1.6kbits/s speed=0.0906x elapsed=0:00:39.75    \nframe=  217 fps=5.4 q=4.0 size=       1KiB time=00:00:03.60 bitrate=   1.6kbits/s speed=0.0894x elapsed=0:00:40.27    \nframe=  221 fps=5.4 q=8.0 size=       1KiB time=00:00:03.66 bitrate=   1.6kbits/s speed=0.0899x elapsed=0:00:40.78    \nframe=  227 fps=5.5 q=10.0 size=       1KiB time=00:00:03.76 bitrate=   1.5kbits/s speed=0.0911x elapsed=0:00:41.34    \nframe=  233 fps=5.6 q=4.0 size=       1KiB time=00:00:03.86 bitrate=   1.5kbits/s speed=0.0924x elapsed=0:00:41.86    \nframe=  235 fps=5.5 q=8.0 size=       1KiB time=00:00:03.90 bitrate=   1.5kbits/s speed=0.092x elapsed=0:00:42.38    \nframe=  239 fps=5.6 q=9.0 size=       1KiB time=00:00:03.96 bitrate=   1.4kbits/s speed=0.0924x elapsed=0:00:42.91    \nframe=  245 fps=5.6 q=8.0 size=       1KiB time=00:00:04.06 bitrate=   1.4kbits/s speed=0.0936x elapsed=0:00:43.45    \nframe=  249 fps=5.7 q=3.0 size=       1KiB time=00:00:04.13 bitrate=   1.4kbits/s speed=0.094x elapsed=0:00:43.96    \nframe=  251 fps=5.6 q=9.0 size=       1KiB time=00:00:04.16 bitrate=   1.4kbits/s speed=0.0937x elapsed=0:00:44.49    \nframe=  255 fps=5.7 q=9.0 size=       1KiB time=00:00:04.23 bitrate=   1.3kbits/s speed=0.094x elapsed=0:00:45.02    \nframe=  261 fps=5.7 q=9.0 size=       1KiB time=00:00:04.33 bitrate=   1.3kbits/s speed=0.0951x elapsed=0:00:45.55    \nframe=  265 fps=5.8 q=4.0 size=       1KiB time=00:00:04.40 bitrate=   1.3kbits/s speed=0.0955x elapsed=0:00:46.08    \nframe=  267 fps=5.7 q=9.0 size=       1KiB time=00:00:04.40 bitrate=   1.3kbits/s speed=0.0944x elapsed=0:00:46.62    \nframe=  271 fps=5.7 q=10.0 size=       1KiB time=00:00:04.46 bitrate=   1.3kbits/s speed=0.0947x elapsed=0:00:47.14    \nframe=  277 fps=5.8 q=9.0 size=       1KiB time=00:00:04.60 bitrate=   1.2kbits/s speed=0.0964x elapsed=0:00:47.69    \nframe=  281 fps=5.8 q=4.0 size=       1KiB time=00:00:04.66 bitrate=   1.2kbits/s speed=0.0968x elapsed=0:00:48.21    \nframe=  281 fps=5.8 q=4.0 size=       1KiB time=00:00:04.66 bitrate=   1.2kbits/s speed=0.0957x elapsed=0:00:48.74    \nframe=  287 fps=5.8 q=10.0 size=       1KiB time=00:00:04.76 bitrate=   1.2kbits/s speed=0.0967x elapsed=0:00:49.28    \n[out#0/matroska @ 00000297e51490c0] video:2061KiB audio:0KiB subtitle:0KiB other streams:0KiB global headers:0KiB muxing overhead: 0.100760%\nframe=  300 fps=6.0 q=18.0 Lsize=    2064KiB time=00:00:04.98 bitrate=3392.2kbits/s speed= 0.1x elapsed=0:00:49.60    \n",
  "seconds": 49.985817193984985,
  "probe_out": {}
}